<svg width="50" height="20" viewBox="0 0 9 5" fill="none" xmlns="http://www.w3.org/2000/svg">
<path d="M4.91308 0.570992L4.91313 0.570952C5.58688 0.0177599 6.68138 -0.0698895 7.41065 0.424647C7.82796 0.708099 8.04094 1.09877 8.06204 1.48859C8.08315 1.87838 7.9131 2.2791 7.54076 2.58487L7.54074 2.58489L4.82688 4.81474C4.68846 4.92842 4.4569 4.92842 4.31847 4.81474L1.60466 2.58493C1.23301 2.27919 1.06327 1.87847 1.08453 1.48863C1.1058 1.09876 1.31882 0.70806 1.73617 0.424607C2.46547 -0.0699104 3.56129 0.0178217 4.23355 0.57089L4.23367 0.570992L4.50997 0.797551L4.57338 0.849544L4.63679 0.797551L4.91308 0.570992Z" fill="white" stroke="#0F8A99" stroke-width="0.2"/>
</svg>
