<svg width="73" height="73" viewBox="0 0 73 73" fill="none" xmlns="http://www.w3.org/2000/svg">
<circle cx="36.5" cy="36.5" r="36.5" fill="#0F8A99"/>
<path d="M58.2064 30.3062C54.9516 24.4792 49.074 21.6455 40.2355 21.6455H40.0631C38.4862 18.4734 34.5574 16.1172 30.5933 16.1172C29.6969 16.1172 28.8317 16.2381 28.0092 16.4723C26.5595 15.0041 24.6509 14.1004 22.9148 14.1004C22.6488 14.1004 22.3902 14.1269 22.1398 14.1691L22.0028 14.0739C20.0359 12.6977 18.2595 12 16.7236 12C15.0687 12 13.7372 12.7879 12.9746 14.2204C11.7006 16.6097 12.3072 20.5109 14.4498 23.707L14.6123 23.9495C13.3457 27.1415 14.3381 31.8596 16.2015 33.8367V34.2886C16.2015 47.8411 30.439 55.2389 41.2394 55.6519C46.5161 58.4748 51.8765 60 53.5667 60C55.362 60 56.4546 59.5763 56.7411 59.4505C56.7477 59.4488 56.7526 59.4455 56.7583 59.443C56.8002 59.4248 56.8248 59.4124 56.8248 59.4124L56.8224 59.4091C57.333 59.1526 57.5661 58.4516 57.6482 57.5247L57.6498 57.5263L57.6506 57.4957C57.663 57.3625 57.6712 57.2251 57.6761 57.0836C57.7212 56.5266 57.8394 55.5261 58.1506 54.5611C60.4146 53.5332 61.5663 51.9476 61.5663 49.7975C61.5663 42.7986 61.1599 35.592 58.2064 30.3062ZM16.7236 13.5476C17.7456 13.5476 19.0492 13.992 20.6352 15.0223L20.5407 15.3749C20.0794 17.0954 19.05 18.3517 17.5306 20.0706C17.1347 20.5285 16.7563 21.0014 16.3961 21.4883C16.2869 21.6314 16.1818 21.763 16.0751 21.9012C15.7098 22.2174 15.4792 22.3821 15.4586 22.397C13.0075 18.3633 13.3325 13.5476 16.7236 13.5476ZM15.9027 24.9509C16.1252 24.7159 16.4675 24.3873 16.8796 23.976C20.0064 22.1512 21.2566 19.0759 22.093 17.0077C22.2457 16.6295 22.3886 16.2737 22.5199 15.9906L22.671 15.6646C22.7522 15.6579 22.8318 15.6472 22.9156 15.6472C24.0656 15.6472 25.3979 16.2248 26.4955 17.1708L26.3321 17.7286C26.1433 18.3749 25.9151 19.0328 25.6705 19.6932C23.3457 24.835 18.8193 30.9534 16.9806 32.3537C15.8272 30.7026 15.1746 27.3468 15.9027 24.9509ZM17.7817 35.2593C18.5033 34.5617 19.4728 33.5197 20.5366 32.2386C21.1658 31.5826 21.7565 30.8901 22.3057 30.1647C23.9565 27.9815 26.979 23.5423 28.6725 18.3401L28.826 17.8684C29.4059 17.7356 29.9986 17.6678 30.5933 17.6665C34.0706 17.6665 37.5947 19.7901 38.8088 22.6196C37.0324 26.8949 33.9368 31.7123 32.9682 33.1804C32.1169 33.8102 31.585 34.3382 31.4405 34.4657C30.4382 35.3479 30.2182 36.5023 30.4136 36.7051C29.408 38.7782 28.7291 42.0066 29.8357 44.8121C31.2476 48.3923 34.4564 51.4138 38.0938 53.7956C28.5231 52.2935 18.3785 45.6985 17.7817 35.2593ZM47.8279 47.5697C43.3918 45.4188 39.7224 43.9514 38.5239 40.6461C37.6866 38.3528 37.0439 35.8287 36.7246 34.0668C37.2544 33.9473 37.7921 33.8666 38.3335 33.8251C48.3992 33.1423 56.847 44.2188 57.4618 49.5766C55.9826 49.109 50.6288 48.9269 47.8279 47.5697ZM39.7405 30.5512C38.9656 30.605 38.2375 30.7423 37.5512 30.9277C38.5675 29.1757 40.0204 26.4265 41.2066 23.2154C57.1343 23.6251 59.7258 34.0833 59.9926 47.0748C58.0414 37.7272 46.7181 30.0604 39.7405 30.5512Z" fill="white"/>
</svg>
