<svg width="90" height="90" viewBox="0 0 33 33" fill="none" xmlns="http://www.w3.org/2000/svg">
<g filter="url(#filter0_d_164:301)">
<path d="M16.4823 6.60377C17.5267 6.60377 18.5478 6.90808 19.4162 7.47822C20.2847 8.04836 20.9615 8.85872 21.3613 9.80683C21.761 10.7549 21.8655 11.7982 21.6618 12.8047C21.458 13.8112 20.955 14.7357 20.2165 15.4614C19.4779 16.187 18.5369 16.6812 17.5125 16.8814C16.4881 17.0816 15.4263 16.9789 14.4613 16.5862C13.4963 16.1934 12.6716 15.5284 12.0913 14.6751C11.511 13.8218 11.2013 12.8187 11.2013 11.7924C11.2013 10.4163 11.7576 9.09656 12.748 8.1235C13.7384 7.15043 15.0816 6.60377 16.4823 6.60377ZM28.8658 6.36792C28.8028 6.47524 28.7189 6.56931 28.6189 6.64475C28.5188 6.72019 28.4046 6.77552 28.2828 6.80759C28.161 6.83966 28.034 6.84782 27.909 6.83163C27.7839 6.81543 27.6634 6.77519 27.5542 6.7132L26.9938 6.3954C26.7255 6.62137 26.4171 6.79689 26.0841 6.9132V7.54717C26.0841 7.79737 25.9829 8.03733 25.8028 8.21425C25.6228 8.39117 25.3785 8.49056 25.1239 8.49056C24.8692 8.49056 24.625 8.39117 24.4449 8.21425C24.2649 8.03733 24.1637 7.79737 24.1637 7.54717V6.9132C23.8307 6.79689 23.5223 6.62137 23.2539 6.3954L22.6935 6.7132C22.4731 6.83633 22.2121 6.8688 21.9674 6.80353C21.7227 6.73826 21.5142 6.58054 21.3874 6.3648C21.2607 6.14906 21.2259 5.8928 21.2907 5.65196C21.3555 5.41112 21.5146 5.20523 21.7334 5.07924L22.2923 4.76214C22.227 4.42056 22.227 4.07 22.2923 3.72842L21.7334 3.41132C21.5146 3.28533 21.3555 3.07945 21.2907 2.8386C21.2259 2.59776 21.2607 2.3415 21.3874 2.12576C21.5142 1.91002 21.7227 1.7523 21.9674 1.68703C22.2121 1.62176 22.4731 1.65423 22.6935 1.77736L23.2539 2.09516C23.5223 1.86919 23.8307 1.69367 24.1637 1.57736V0.943396C24.1637 0.693192 24.2649 0.453235 24.4449 0.276314C24.625 0.0993931 24.8692 0 25.1239 0C25.3785 0 25.6228 0.0993931 25.8028 0.276314C25.9829 0.453235 26.0841 0.693192 26.0841 0.943396V1.57736C26.4171 1.69367 26.7255 1.86919 26.9938 2.09516L27.5542 1.77736C27.6635 1.71444 27.7843 1.67336 27.9097 1.65651C28.0352 1.63966 28.1628 1.64735 28.2852 1.67915C28.4077 1.71095 28.5225 1.76623 28.6231 1.8418C28.7237 1.91738 28.808 2.01175 28.8714 2.1195C28.9347 2.22725 28.9757 2.34623 28.992 2.46961C29.0083 2.59299 28.9996 2.71832 28.9665 2.83839C28.9333 2.95846 28.8763 3.07089 28.7987 3.16922C28.7211 3.26755 28.6245 3.34983 28.5144 3.41132L27.9554 3.72842C28.0208 4.07 28.0208 4.42056 27.9554 4.76214L28.5144 5.07924C28.7349 5.20435 28.8958 5.4104 28.9617 5.65207C29.0276 5.89375 28.9931 6.15124 28.8658 6.36792ZM25.1239 5.18868C25.3138 5.18868 25.4994 5.13335 25.6573 5.02969C25.8152 4.92602 25.9383 4.77869 26.011 4.6063C26.0836 4.43392 26.1027 4.24423 26.0656 4.06123C26.0286 3.87823 25.9371 3.71014 25.8028 3.5782C25.6685 3.44626 25.4975 3.35641 25.3112 3.32001C25.1249 3.28361 24.9319 3.30229 24.7564 3.3737C24.581 3.4451 24.431 3.56602 24.3255 3.72116C24.22 3.8763 24.1637 4.05869 24.1637 4.24528C24.164 4.49539 24.2653 4.73516 24.4453 4.91202C24.6253 5.08887 24.8693 5.18836 25.1239 5.18868ZM27.8088 10.4429C27.5559 10.4726 27.3254 10.5997 27.168 10.7964C27.0105 10.993 26.939 11.2431 26.9692 11.4915C27.0192 11.9045 27.0442 12.32 27.0442 12.7358C27.0462 15.2762 26.0959 17.7282 24.3747 19.6238C23.6039 18.5267 22.6044 17.6032 21.4425 16.9146C20.1064 18.1684 18.3299 18.868 16.4823 18.868C14.6347 18.868 12.8582 18.1684 11.5221 16.9146C10.3602 17.6031 9.36062 18.5266 8.58981 19.6238C7.23657 18.1294 6.35204 16.2823 6.04282 14.3052C5.7336 12.3281 6.01287 10.3054 6.84699 8.48066C7.68111 6.65596 9.03449 5.10718 10.744 4.02094C12.4536 2.93471 14.4464 2.35737 16.4823 2.35849C16.8096 2.35849 17.1396 2.37335 17.4634 2.40259C17.717 2.42553 17.9695 2.34856 18.1653 2.1886C18.3612 2.02864 18.4843 1.7988 18.5076 1.54965C18.531 1.30049 18.4526 1.05242 18.2898 0.860023C18.127 0.667621 17.8931 0.546643 17.6395 0.523703C17.2548 0.489053 16.8686 0.4717 16.4823 0.471698C13.9664 0.470552 11.509 1.21671 9.43251 2.61227C7.356 4.00782 5.75741 5.98757 4.84651 8.2917C3.93561 10.5958 3.75496 13.1167 4.32828 15.5235C4.90159 17.9303 6.20207 20.1106 8.05907 21.7783C8.10655 21.8308 8.1599 21.8779 8.2181 21.9186C10.4969 23.9038 13.4369 25 16.4824 25C19.528 25 22.468 23.9037 24.7466 21.9184C24.8046 21.8778 24.8577 21.831 24.9051 21.7788C26.1847 20.6318 27.2066 19.2351 27.9056 17.678C28.6046 16.1209 28.9653 14.4377 28.9646 12.7358C28.9646 12.2452 28.935 11.7551 28.876 11.2679C28.8611 11.1449 28.8216 11.026 28.7599 10.9179C28.6982 10.8099 28.6154 10.7148 28.5163 10.6382C28.4172 10.5616 28.3037 10.5049 28.1823 10.4714C28.0609 10.4379 27.934 10.4282 27.8088 10.4429Z" fill="#0F8A99"/>
</g>
<defs>
<filter id="filter0_d_164:301" x="0" y="0" width="33" height="33" filterUnits="userSpaceOnUse" color-interpolation-filters="sRGB">
<feFlood flood-opacity="0" result="BackgroundImageFix"/>
<feColorMatrix in="SourceAlpha" type="matrix" values="0 0 0 0 0 0 0 0 0 0 0 0 0 0 0 0 0 0 127 0" result="hardAlpha"/>
<feOffset dy="4"/>
<feGaussianBlur stdDeviation="2"/>
<feComposite in2="hardAlpha" operator="out"/>
<feColorMatrix type="matrix" values="0 0 0 0 0 0 0 0 0 0 0 0 0 0 0 0 0 0 0.25 0"/>
<feBlend mode="normal" in2="BackgroundImageFix" result="effect1_dropShadow_164:301"/>
<feBlend mode="normal" in="SourceGraphic" in2="effect1_dropShadow_164:301" result="shape"/>
</filter>
</defs>
</svg>
